<?xml version="1.0" standalone="no"?>
<!DOCTYPE svg PUBLIC "-//W3C//DTD SVG 20010904//EN"
 "http://www.w3.org/TR/2001/REC-SVG-20010904/DTD/svg10.dtd">
<svg version="1.0" xmlns="http://www.w3.org/2000/svg"
 width="999.000000pt" height="1280.000000pt" viewBox="0 0 999.000000 1280.000000"
 preserveAspectRatio="xMidYMid meet">
<metadata>
Created by potrace 1.15, written by Peter Selinger 2001-2017
</metadata>
<g transform="translate(0.000000,1280.000000) scale(0.100000,-0.100000)"
fill="#000000" stroke="none">
<path d="M4845 12790 c-293 -47 -578 -217 -738 -441 -63 -88 -142 -257 -167
-355 -106 -408 98 -882 475 -1110 95 -57 260 -120 380 -145 92 -19 324 -16
425 5 221 47 410 147 558 297 122 123 222 297 278 484 24 80 27 106 27 235 0
129 -3 155 -27 235 -126 414 -425 693 -840 781 -88 19 -291 26 -371 14z"/>
<path d="M335 12756 c-159 -39 -276 -159 -320 -331 -8 -32 -15 -80 -15 -105 0
-98 4 -109 400 -940 56 -118 121 -255 145 -305 60 -127 279 -590 505 -1065
196 -412 340 -716 608 -1282 83 -175 164 -337 181 -361 85 -125 254 -217 396
-217 l41 0 119 -262 c203 -451 317 -680 354 -710 78 -66 231 -8 231 88 0 63
-72 241 -234 577 -77 160 -82 172 -68 163 4 -2 50 -11 102 -20 431 -69 860
-64 1250 15 633 129 1301 403 1840 754 237 154 404 288 731 582 420 380 627
780 665 1288 8 114 -10 190 -66 279 -111 175 -319 289 -469 257 -65 -14 -119
-41 -152 -78 -45 -48 -99 -134 -137 -218 -72 -157 -220 -452 -277 -550 -322
-561 -823 -1078 -1420 -1467 -667 -436 -1210 -642 -1844 -703 -85 -8 -185 -15
-223 -15 l-69 0 -20 47 c-47 109 -47 119 2 218 44 88 44 90 44 195 0 77 -5
119 -19 160 -11 30 -107 240 -214 465 -107 226 -257 543 -334 705 -77 162
-225 473 -328 690 -103 217 -250 526 -325 685 -456 962 -579 1216 -612 1263
-110 161 -297 240 -468 198z"/>
<path d="M7085 7474 c-169 -33 -308 -140 -384 -296 -57 -118 -72 -198 -78
-437 -11 -389 36 -619 269 -1331 187 -571 454 -1224 786 -1925 191 -403 234
-489 392 -785 286 -535 376 -692 545 -950 126 -191 183 -266 506 -661 140
-173 366 -451 501 -619 232 -289 299 -364 347 -390 20 -10 21 -8 21 51 0 53
-9 82 -64 212 -115 272 -219 533 -466 1172 -34 88 -115 295 -180 460 -245 620
-604 1667 -725 2115 -144 534 -219 904 -285 1415 -66 516 -81 619 -106 770
-49 290 -101 463 -201 660 -99 195 -226 360 -377 488 l-49 41 -141 13 c-176
15 -223 15 -311 -3z"/>
<path d="M5800 6813 c-206 -40 -404 -125 -550 -236 -270 -205 -503 -553 -699
-1043 -501 -1258 -850 -2611 -1056 -4089 -25 -181 -72 -523 -105 -760 -33
-237 -65 -463 -71 -503 -8 -53 -7 -81 1 -107 12 -37 58 -81 71 -68 17 18 245
610 379 983 247 692 383 1044 605 1570 262 620 559 1222 787 1594 103 169 182
283 456 660 413 567 562 855 637 1221 65 320 36 532 -91 674 -68 75 -136 105
-248 107 -50 1 -102 0 -116 -3z"/>
<path d="M430 4950 l0 -60 -95 0 -95 0 0 -2430 0 -2431 149 3 148 3 7 660 c3
363 6 1451 6 2418 l0 1757 180 0 180 0 0 -2420 0 -2421 153 3 152 3 3 2418 2
2417 180 0 180 0 0 -2132 c1 -1173 3 -2261 6 -2418 l6 -285 149 -3 149 -3 0
2431 0 2430 -95 0 -95 0 0 38 c0 20 -3 47 -6 60 l-6 22 -629 0 -629 0 0 -60z"/>
</g>
</svg>
